<svg width="30" height="30" viewBox="0 0 38 25" fill="none" xmlns="http://www.w3.org/2000/svg">
<mask id="path-1-inside-1_107_309" fill="white">
<path fill-rule="evenodd" clip-rule="evenodd" d="M24.3536 24.1482C23.1249 24.6982 21.7879 25 20.3893 25C17.6005 25 15.0562 23.7998 13.1281 21.8253C11.8437 22.5036 10.3702 22.8769 8.80669 22.8497C3.89121 22.7641 -0.0514645 18.7522 0.000483958 13.8887C0.0524324 9.02533 4.07933 5.15212 8.99481 5.23769C9.79603 5.25164 10.5714 5.36991 11.3078 5.57918C13.262 2.21597 16.5999 0 20.3893 0C24.9199 0 28.8051 3.16764 30.4517 7.6764C34.2659 8.67076 37.0786 12.107 37.0786 16.1932C37.0786 21.057 33.0935 25 28.1775 25C26.8088 25 25.5121 24.6943 24.3536 24.1482Z"/>
</mask>
<path fill-rule="evenodd" clip-rule="evenodd" d="M24.3536 24.1482C23.1249 24.6982 21.7879 25 20.3893 25C17.6005 25 15.0562 23.7998 13.1281 21.8253C11.8437 22.5036 10.3702 22.8769 8.80669 22.8497C3.89121 22.7641 -0.0514645 18.7522 0.000483958 13.8887C0.0524324 9.02533 4.07933 5.15212 8.99481 5.23769C9.79603 5.25164 10.5714 5.36991 11.3078 5.57918C13.262 2.21597 16.5999 0 20.3893 0C24.9199 0 28.8051 3.16764 30.4517 7.6764C34.2659 8.67076 37.0786 12.107 37.0786 16.1932C37.0786 21.057 33.0935 25 28.1775 25C26.8088 25 25.5121 24.6943 24.3536 24.1482Z" fill="white"/>
<path d="M24.3537 24.1482L24.7801 23.2436L24.3645 23.0477L23.9451 23.2354L24.3537 24.1482ZM13.1281 21.8253L13.8436 21.1267L13.3217 20.5923L12.6611 20.9411L13.1281 21.8253ZM8.80671 22.8497L8.78931 23.8495L8.78931 23.8495L8.80671 22.8497ZM0.00050751 13.8887L1.00045 13.8994L0.00050751 13.8887ZM8.99484 5.23769L8.97743 6.23754L8.97743 6.23754L8.99484 5.23769ZM11.3079 5.57918L11.0345 6.5411L11.7821 6.75352L12.1725 6.08157L11.3079 5.57918ZM30.4517 7.6764L29.5124 8.01943L29.6922 8.51182L30.1994 8.64406L30.4517 7.6764ZM23.9451 23.2354C22.8401 23.73 21.6419 24 20.3893 24V26C21.9339 26 23.4098 25.6663 24.7622 25.0609L23.9451 23.2354ZM20.3893 24C17.8995 24 15.6053 22.9307 13.8436 21.1267L12.4127 22.524C14.5072 24.6688 17.3015 26 20.3893 26V24ZM8.78931 23.8495C10.5247 23.8798 12.1646 23.4651 13.5951 22.7096L12.6611 20.9411C11.5229 21.5422 10.2156 21.8741 8.82412 21.8498L8.78931 23.8495ZM-0.999435 13.8781C-1.05736 19.3011 3.3343 23.7546 8.78931 23.8495L8.82412 21.8498C4.44816 21.7737 0.95448 18.2032 1.00045 13.8994L-0.999435 13.8781ZM9.01224 4.23785C3.55219 4.14279 -0.941451 8.44956 -0.999435 13.8781L1.00045 13.8994C1.04636 9.60109 4.60652 6.16145 8.97743 6.23754L9.01224 4.23785ZM11.5812 4.61726C10.7623 4.38456 9.90092 4.25332 9.01224 4.23785L8.97743 6.23754C9.69119 6.24997 10.3806 6.35526 11.0345 6.5411L11.5812 4.61726ZM12.1725 6.08157C13.9783 2.97379 17.0132 1 20.3893 1V-1C16.1867 -1 12.5458 1.45814 10.4432 5.07679L12.1725 6.08157ZM20.3893 1C24.4207 1 27.9807 3.8252 29.5124 8.01943L31.391 7.33336C29.6296 2.51008 25.4191 -1 20.3893 -1V1ZM38.0786 16.1932C38.0786 11.6342 34.9413 7.81339 30.7039 6.70874L30.1994 8.64406C33.5906 9.52812 36.0786 12.5798 36.0786 16.1932H38.0786ZM28.1775 26C33.6357 26 38.0786 21.6193 38.0786 16.1932H36.0786C36.0786 20.4947 32.5513 24 28.1775 24V26ZM23.9273 25.0527C25.2166 25.6605 26.6585 26 28.1775 26V24C26.959 24 25.8078 23.7281 24.7801 23.2436L23.9273 25.0527Z" fill="#555555" mask="url(#path-1-inside-1_107_309)"/>
</svg>
