<svg width="30" height="30" viewBox="0 0 38 24" fill="none" xmlns="http://www.w3.org/2000/svg">
<mask id="path-1-inside-1_496_473" fill="white">
<path fill-rule="evenodd" clip-rule="evenodd" d="M24.3537 23.1823C23.125 23.7102 21.7879 24 20.3893 24C17.6005 24 15.0563 22.8478 13.1281 20.9523C11.8438 21.6035 10.3702 21.9618 8.80671 21.9357C3.89123 21.8536 -0.0514409 18.0021 0.00050751 13.3332C0.0524559 8.66432 4.07935 4.94603 8.99484 5.02819C9.79605 5.04158 10.5714 5.15511 11.3079 5.35601C13.262 2.12733 16.5999 0 20.3893 0C24.9199 0 28.8051 3.04093 30.4517 7.36934C34.266 8.32393 37.0786 11.6227 37.0786 15.5454C37.0786 20.2148 33.0935 24 28.1775 24C26.8088 24 25.5122 23.7065 24.3537 23.1823Z"/>
</mask>
<path fill-rule="evenodd" clip-rule="evenodd" d="M24.3537 23.1823C23.125 23.7102 21.7879 24 20.3893 24C17.6005 24 15.0563 22.8478 13.1281 20.9523C11.8438 21.6035 10.3702 21.9618 8.80671 21.9357C3.89123 21.8536 -0.0514409 18.0021 0.00050751 13.3332C0.0524559 8.66432 4.07935 4.94603 8.99484 5.02819C9.79605 5.04158 10.5714 5.15511 11.3079 5.35601C13.262 2.12733 16.5999 0 20.3893 0C24.9199 0 28.8051 3.04093 30.4517 7.36934C34.266 8.32393 37.0786 11.6227 37.0786 15.5454C37.0786 20.2148 33.0935 24 28.1775 24C26.8088 24 25.5122 23.7065 24.3537 23.1823Z" fill="#7EC9CA"/>
<path d="M24.3537 23.1823L24.7659 22.2712L24.3641 22.0893L23.9589 22.2635L24.3537 23.1823ZM13.1281 20.9523L13.8292 20.2392L13.3168 19.7355L12.6759 20.0604L13.1281 20.9523ZM8.80671 21.9357L8.82342 20.9358L8.82342 20.9358L8.80671 21.9357ZM0.00050751 13.3332L1.00045 13.3443L0.00050751 13.3332ZM8.99484 5.02819L8.97813 6.02805L8.97813 6.02805L8.99484 5.02819ZM11.3079 5.35601L11.0447 6.32076L11.7727 6.51935L12.1634 5.87381L11.3079 5.35601ZM30.4517 7.36934L29.517 7.72489L29.7026 8.21271L30.2089 8.33942L30.4517 7.36934ZM23.9589 22.2635C22.8511 22.7395 21.648 23 20.3893 23V25C21.9277 25 23.3988 24.6809 24.7484 24.101L23.9589 22.2635ZM20.3893 23C17.8857 23 15.5873 21.9676 13.8292 20.2392L12.4271 21.6655C14.5252 23.728 17.3153 25 20.3893 25V23ZM8.79 22.9356C10.518 22.9644 12.1523 22.5682 13.5803 21.8443L12.6759 20.0604C11.5352 20.6387 10.2224 20.9592 8.82342 20.9358L8.79 22.9356ZM-0.999431 13.3221C-1.05803 18.5886 3.37328 22.845 8.79 22.9356L8.82342 20.9358C4.40919 20.8621 0.955147 17.4156 1.00045 13.3443L-0.999431 13.3221ZM9.01155 4.02833C3.59128 3.93774 -0.940775 8.05041 -0.999431 13.3221L1.00045 13.3443C1.04569 9.27822 4.56743 5.95433 8.97813 6.02805L9.01155 4.02833ZM11.571 4.39127C10.7548 4.16859 9.89665 4.04312 9.01155 4.02833L8.97813 6.02805C9.69546 6.04004 10.3881 6.14163 11.0447 6.32076L11.571 4.39127ZM12.1634 5.87381C13.96 2.90547 16.9931 1 20.3893 1V-1C16.2068 -1 12.5641 1.34919 10.4524 4.83822L12.1634 5.87381ZM20.3893 1C24.4457 1 27.9959 3.72612 29.517 7.72489L31.3863 7.01379C29.6144 2.35575 25.3941 -1 20.3893 -1V1ZM38.0786 15.5454C38.0786 11.1213 34.9111 7.45454 30.6945 6.39926L30.2089 8.33942C33.6208 9.19332 36.0786 12.1241 36.0786 15.5454H38.0786ZM28.1775 25C33.5966 25 38.0786 20.8149 38.0786 15.5454H36.0786C36.0786 19.6146 32.5903 23 28.1775 23V25ZM23.9414 24.0933C25.2279 24.6755 26.6649 25 28.1775 25V23C26.9526 23 25.7964 22.7375 24.7659 22.2712L23.9414 24.0933Z" fill="#555555" mask="url(#path-1-inside-1_496_473)"/>
</svg>
