<svg width="69" height="69" viewBox="0 0 69 69" fill="none" xmlns="http://www.w3.org/2000/svg">
<mask id="mask0_96_295" style="mask-type:alpha" maskUnits="userSpaceOnUse" x="0" y="0" width="69" height="69">
<path d="M69 34.5C69 15.4462 53.5538 0 34.5 0C15.4462 0 0 15.4462 0 34.5C0 53.5538 15.4462 69 34.5 69C53.5538 69 69 53.5538 69 34.5Z" fill="white"/>
</mask>
<g mask="url(#mask0_96_295)">
<path d="M69 0H0V69H69V0Z" fill="#C3BBC9"/>
<path d="M82.2498 31.249C75.0814 11.5538 53.3041 1.39886 33.6088 8.56733C13.9136 15.7358 3.7587 37.5131 10.9272 57.2083C18.0956 76.9035 39.873 87.0585 59.5682 79.89C79.2634 72.7215 89.4183 50.9442 82.2498 31.249Z" fill="#3B234A"/>
<path d="M21.0833 36.4167C24.9166 38.3334 28.7499 38.3334 32.5833 36.4167" stroke="white" stroke-width="2.22222" stroke-linecap="round"/>
<path d="M22.0415 26.8334C22.0415 25.7748 21.3979 24.9167 20.604 24.9167C19.8101 24.9167 19.1665 25.7748 19.1665 26.8334C19.1665 27.8919 19.8101 28.75 20.604 28.75C21.3979 28.75 22.0415 27.8919 22.0415 26.8334Z" fill="white"/>
<path d="M33.5415 26.8334C33.5415 25.7748 32.8979 24.9167 32.104 24.9167C31.3101 24.9167 30.6665 25.7748 30.6665 26.8334C30.6665 27.8919 31.3101 28.75 32.104 28.75C32.8979 28.75 33.5415 27.8919 33.5415 26.8334Z" fill="white"/>
</g>
</svg>
